<?xml version="1.0" standalone="no"?>
<!DOCTYPE svg PUBLIC "-//W3C//DTD SVG 20010904//EN"
 "http://www.w3.org/TR/2001/REC-SVG-20010904/DTD/svg10.dtd">
<svg version="1.0" xmlns="http://www.w3.org/2000/svg"
 width="512.000000pt" height="512.000000pt" viewBox="0 0 512.000000 512.000000"
 preserveAspectRatio="xMidYMid meet">

<g transform="translate(0.000000,512.000000) scale(0.100000,-0.100000)"
fill="#000000" stroke="none">
<path d="M2474 5013 c-281 -355 -651 -876 -866 -1218 -503 -802 -770 -1417
-819 -1893 -20 -195 13 -470 82 -677 90 -269 232 -499 433 -701 275 -275 609
-443 1001 -505 103 -16 407 -16 510 0 392 62 726 230 1001 505 309 310 479
682 515 1131 13 158 2 295 -37 475 -111 499 -465 1209 -990 1982 -246 363
-720 998 -744 998 -5 0 -43 -44 -86 -97z m-91 -790 c-18 -118 -70 -307 -213
-778 -196 -645 -272 -931 -325 -1220 -75 -409 -75 -666 0 -1034 32 -159 88
-378 125 -490 17 -52 28 -96 26 -98 -15 -16 -219 123 -317 215 -228 214 -364
489 -415 842 -60 412 58 741 582 1635 249 425 370 638 456 803 44 83 81 152
82 152 2 0 1 -12 -1 -27z"/>
</g>
</svg>
